<svg xmlns="http://www.w3.org/2000/svg" viewBox="0 0 300 300"><defs><style>.cls-1{fill:#ffffff;}.cls-2{fill:#ededed;}</style></defs><g id="Слой_2" data-name="Слой 2"><g id="Printer_s_Marks" data-name="Printer&apos;s Marks"><path class="cls-1" d="M147.7,4.69A143.32,143.32,0,1,0,291,148,143.31,143.31,0,0,0,147.7,4.69Zm.6,247.46a104,104,0,1,1,104-104A104,104,0,0,1,148.3,252.15Z"/><path class="cls-2" d="M36.05,102.85c2.3.79,3.67,3.63,2,8.56s-4.55,6.44-6.66,5.72a.75.75,0,0,1-.5-1l.83-2.41a1.32,1.32,0,0,1,1.16-.9c.58-.13,1.35-.51,2-2.45s.22-2.83-.35-3c-1.92-.66-3.31,9.34-8.67,7.51-2.29-.79-3.61-3.5-2-8.24,1.52-4.45,4.35-5.85,6.27-5.2a.75.75,0,0,1,.5,1l-.83,2.41a1.3,1.3,0,0,1-1.16.9c-.35.08-1.12.48-1.62,1.93-.6,1.74-.22,2.52.35,2.71C29.3,111,30.69,101,36.05,102.85Z"/><path class="cls-2" d="M38.93,84.76a.75.75,0,0,1,.35,1.1l-1.15,2.28a1.33,1.33,0,0,1-1.28.72,3,3,0,0,0-2.6,1.77c-1,2-.4,3.92,2,5.16s4.35.61,5.37-1.4a3.12,3.12,0,0,0-.2-3.42,1.3,1.3,0,0,1-.16-1.46l1.15-2.28a.75.75,0,0,1,1.09-.36c2.17,1.1,3.31,4.66,1.09,9-2.45,4.82-6.4,6.14-10.46,4.07s-5.34-6-2.89-10.86C33.45,84.84,36.86,83.71,38.93,84.76Z"/><path class="cls-2" d="M43.81,84.17l-6.19-4.4a.69.69,0,0,1-.16-1l1.78-2.5a.7.7,0,0,1,1-.17l6.18,4.39a3.07,3.07,0,0,0,3.56-5l-6.19-4.4a.69.69,0,0,1-.16-1l1.78-2.5a.7.7,0,0,1,1-.17l6.17,4.38c3.15,2.24,3.65,5.73.74,9.81S46.94,86.4,43.81,84.17Z"/><path class="cls-2" d="M61.81,59.41l.15.14s2.56-1.79,4.46,0C68,61.12,68.07,63.86,65.1,67l-5.66,5.9a.7.7,0,0,1-1,0l-9.2-8.83a.69.69,0,0,1,0-1l5.1-5.31c2.9-3,5.49-3.09,7-1.62A2.88,2.88,0,0,1,61.81,59.41Zm-7.64,3.15L55.63,64l2.48-2.58c.63-.66.62-1.24.18-1.66s-1-.42-1.65.26ZM58,66.2l1.75,1.68,3-3.17c.71-.73.7-1.45.19-1.94S61.71,62.29,61,63Z"/><path class="cls-2" d="M77.46,52.93l-5.13,3.88.53,1.88a1,1,0,0,1-.31,1.12l-2.6,2c-.33.25-.74.18-.84-.25L66,47.91a1.07,1.07,0,0,1,.3-1.12l3.34-2.52a1,1,0,0,1,1.15,0L83,51a.48.48,0,0,1,0,.87L80.29,54a1.06,1.06,0,0,1-1.16,0Zm-6,.35,2.85-2.15-3.75-2.24L70.4,49Z"/><path class="cls-2" d="M89.29,47,83.56,35.62a.7.7,0,0,1,.32-.95l5.76-2.89c4.93-2.48,8.76-1.23,10.66,2.56S100.93,42,96,44.43l-5.76,2.89A.69.69,0,0,1,89.29,47Zm5.25-5.47c2.1-1.06,2.7-2.83,1.56-5.09s-2.91-2.84-5-1.78l-2.37,1.19,3.45,6.87Z"/><path class="cls-2" d="M110.07,26.29a.7.7,0,0,1-.43.91l-1.83.65,2.46,6.86,1.83-.66a.7.7,0,0,1,.91.43l.68,1.91a.68.68,0,0,1-.43.9l-7.89,2.83a.69.69,0,0,1-.91-.43l-.68-1.9a.7.7,0,0,1,.43-.91l1.83-.65-2.46-6.86-1.83.65a.69.69,0,0,1-.91-.42l-.68-1.91a.7.7,0,0,1,.43-.91L108.48,24a.69.69,0,0,1,.91.42Z"/><path class="cls-2" d="M121.48,30.72l.2,0,1.43-9.77a1,1,0,0,1,.74-.9l3.38-.78c.4-.09.75.14.66.58l-2.53,13.66a1,1,0,0,1-.74.88l-4.08.95a1.08,1.08,0,0,1-1.06-.48l-8.23-11.2c-.27-.35-.06-.71.34-.8l3.19-.73a1.06,1.06,0,0,1,1.06.48Z"/><path class="cls-2" d="M139.84,20.64a.69.69,0,0,1-.64.78l-1.93.21.78,7.25,1.93-.21a.7.7,0,0,1,.79.63l.21,2a.7.7,0,0,1-.63.78L132,33a.71.71,0,0,1-.79-.63l-.21-2a.68.68,0,0,1,.63-.78l1.93-.21-.78-7.25-1.93.21a.68.68,0,0,1-.78-.62l-.22-2a.7.7,0,0,1,.63-.78l8.33-.9a.7.7,0,0,1,.79.63Z"/><path class="cls-2" d="M153.6,25.85l.11-7.38a.68.68,0,0,1,.72-.7l3.07,0a.69.69,0,0,1,.7.72L158,31.28a.68.68,0,0,1-.72.7l-3.48-.05a1.47,1.47,0,0,1-1.11-.73l-5-7.46h-.2l-.11,7.39a.68.68,0,0,1-.72.69l-3.07,0a.69.69,0,0,1-.7-.72l.18-12.75a.69.69,0,0,1,.72-.7l3.48.05a1.47,1.47,0,0,1,1.11.73l5,7.46Z"/><path class="cls-2" d="M176.72,29.17c-.53,3.2-3.81,5.52-8.55,4.73-5.34-.88-7.79-4.26-7-8.76s4.15-6.9,9.49-6c4.73.79,6.84,3.7,6.49,5.8a.75.75,0,0,1-.94.66l-2.52-.42a1.66,1.66,0,0,1-1.07-1,3,3,0,0,0-2.51-1.75c-2.22-.36-3.86.8-4.3,3.49s.73,4.33,2.95,4.7a3,3,0,0,0,3.43-1.38l-2.25-.37a.69.69,0,0,1-.59-.82l.3-1.8a.7.7,0,0,1,.82-.58l6,1a.7.7,0,0,1,.59.82Z"/><path class="cls-2" d="M194.25,38.31l-6-2.3-1.31,1.44a1.07,1.07,0,0,1-1.12.34l-3.05-1.17a.49.49,0,0,1-.22-.85l9.9-9.86a1.08,1.08,0,0,1,1.11-.33l3.92,1.5a1.05,1.05,0,0,1,.61,1l.77,14c0,.45-.34.63-.73.48l-3.24-1.24a1.06,1.06,0,0,1-.61-1Zm-3.48-4.91,3.34,1.28L194,30.32l-.19-.08Z"/><path class="cls-2" d="M217.12,42a.74.74,0,0,1-1.11.3l-2.23-1.25a1.32,1.32,0,0,1-.67-1.3,3,3,0,0,0-1.66-2.68c-2-1.1-3.91-.56-5.24,1.82s-.79,4.32,1.17,5.42a3.11,3.11,0,0,0,3.43,0,1.3,1.3,0,0,1,1.46-.1l2.23,1.25a.74.74,0,0,1,.32,1.1c-1.19,2.12-4.79,3.11-9.07.71-4.72-2.65-5.87-6.66-3.64-10.63s6.25-5.08,11-2.43C217.27,36.52,218.26,40,217.12,42Z"/><path class="cls-2" d="M223.75,56l-5.08-4L217,53a1,1,0,0,1-1.16,0l-2.58-2c-.33-.26-.37-.67,0-.88l12.34-6.55a1.08,1.08,0,0,1,1.16,0l3.3,2.57a1,1,0,0,1,.31,1.11l-3.32,13.59a.49.49,0,0,1-.84.24L223.49,59a1,1,0,0,1-.29-1.12Zm-1.9-5.71,2.82,2.2,1.19-4.2-.16-.13Z"/><path class="cls-2" d="M227.89,61.76,237.14,53a.69.69,0,0,1,1,0l4.43,4.67c3.8,4,3.71,8,.63,11s-7.11,2.8-10.9-1.21l-4.43-4.67A.69.69,0,0,1,227.89,61.76Zm6.76,3.45c1.61,1.7,3.48,1.76,5.32,0s1.87-3.61.25-5.32L238.4,58l-5.58,5.29Z"/><path class="cls-2" d="M256.61,79.86a.7.7,0,0,1-1-.17l-5-7.09-1.49,1.05,3.72,5.25a.7.7,0,0,1-.16,1L251,81.07a.69.69,0,0,1-1-.18l-3.72-5.25-1.65,1.17,5,7.09a.69.69,0,0,1-.16,1l-1.66,1.17a.7.7,0,0,1-1-.17l-7.2-10.18a.69.69,0,0,1,.16-1l10.41-7.37a.69.69,0,0,1,1,.17l7.2,10.18a.69.69,0,0,1-.16,1Z"/><path class="cls-2" d="M252.08,95.57a1.21,1.21,0,0,1,.14-1.32l4.81-5.4-.09-.18-6,2.91a.69.69,0,0,1-1-.33l-1.34-2.76a.69.69,0,0,1,.33-.95L260.44,82a.69.69,0,0,1,.95.33l1.87,3.86a1.21,1.21,0,0,1-.14,1.32l-6.18,7,.09.18,9.3-.54a1.21,1.21,0,0,1,1.12.7l1.88,3.86a.7.7,0,0,1-.33,1l-11.47,5.57a.7.7,0,0,1-.95-.34l-1.34-2.75a.7.7,0,0,1,.33-1l6-2.92-.09-.18-7.21.45a1.19,1.19,0,0,1-1.13-.7Z"/><path class="cls-2" d="M264.34,115.22l-3.59,1a.69.69,0,0,1-.88-.49l-.87-2.94a.69.69,0,0,1,.48-.88l3.59-1.06,7-8.12c.24-.29.68-.2.83.29l.89,3a1.48,1.48,0,0,1-.33,1.38l-3.9,4.34.06.2,5.63,1.54a1.47,1.47,0,0,1,1,1l.9,3c.14.48-.19.8-.54.68Z"/><path class="cls-2" d="M45.67,222.08l-2-2.74-2.55,1.84a.69.69,0,0,1-1-.16l-1.8-2.49a.69.69,0,0,1,.16-1l10.33-7.47a.69.69,0,0,1,1,.16L54,216c2.81,3.89,2.33,7,0,8.74S48.49,226,45.67,222.08Zm2.63-1.9c.9,1.24,2,1.43,2.93.78s1.08-1.79.18-3l-2-2.74-3.12,2.26Z"/><path class="cls-2" d="M59.68,242.78a.7.7,0,0,1-1,0l-2.13-2.21a.7.7,0,0,1,0-1l3.27-3.16-4.11-4.26-3.27,3.16a.7.7,0,0,1-1,0l-2.13-2.2a.69.69,0,0,1,0-1l9.17-8.85a.7.7,0,0,1,1,0l2.13,2.21a.7.7,0,0,1,0,1l-3.42,3.3L62.31,234l3.42-3.31a.7.7,0,0,1,1,0l2.13,2.2a.7.7,0,0,1,0,1Z"/><path class="cls-2" d="M65.9,241.46l4.64-6a.7.7,0,0,1,1-.12L74,237.2a.7.7,0,0,1,.13,1l-4.64,6A3.07,3.07,0,0,0,74.31,248l4.65-6a.69.69,0,0,1,1-.12l2.42,1.87a.69.69,0,0,1,.13,1l-4.63,6c-2.36,3.06-5.87,3.43-9.83.37S63.55,244.5,65.9,241.46Z"/><path class="cls-2" d="M90.49,256.42s1.05,1.05,1,3.82l-.06,4.26a.48.48,0,0,1-.79.37l-2.76-1.55a1.26,1.26,0,0,1-.81-1.27l0-4.27A1.73,1.73,0,0,0,86,256l-1.61-.9-2.33,4.14a.7.7,0,0,1-1,.27L78.46,258a.7.7,0,0,1-.28-1l6.26-11.12a.69.69,0,0,1,1-.26l2.67,1.5a.7.7,0,0,1,.27,1l-2.23,4,1.34.75a1.75,1.75,0,0,0,2.1,0L93,250.73a1.3,1.3,0,0,1,1.51,0l2.76,1.55a.49.49,0,0,1,.1.87l-3.43,2.14a4.82,4.82,0,0,1-3.33.91Z"/><path class="cls-2" d="M111.07,260.82a.69.69,0,0,1-.93.39L102.07,258l-.67,1.69,6,2.36a.7.7,0,0,1,.41.93l-.75,1.88a.69.69,0,0,1-.92.39l-6-2.36-.74,1.88,8.08,3.19a.69.69,0,0,1,.4.92l-.74,1.89a.7.7,0,0,1-.93.39l-11.59-4.57a.7.7,0,0,1-.4-.93l4.68-11.86a.7.7,0,0,1,.93-.39L111.41,258a.7.7,0,0,1,.4.93Z"/><path class="cls-2" d="M125.78,264.59a.69.69,0,0,1-.86.51l-4.16-1.05-2.46,9.71a.7.7,0,0,1-.87.51l-3-.76a.69.69,0,0,1-.52-.86l2.46-9.71-4.16-1.05a.7.7,0,0,1-.52-.87l.5-2a.69.69,0,0,1,.86-.51l12.68,3.22a.69.69,0,0,1,.52.86Z"/><path class="cls-2" d="M157.7,266.46a.68.68,0,0,1-.69.71l-4.2.08.19,9.91a.7.7,0,0,1-.69.72l-3,.05a.69.69,0,0,1-.72-.69l-.18-9.91-4.21.08a.68.68,0,0,1-.71-.69l0-2a.68.68,0,0,1,.69-.71l12.81-.24a.68.68,0,0,1,.71.69Z"/><path class="cls-2" d="M175.19,274.64a.68.68,0,0,1-.59.8l-3,.45a.68.68,0,0,1-.8-.59l-.68-4.45-5.74.87.68,4.45a.68.68,0,0,1-.59.8l-3,.45a.68.68,0,0,1-.8-.59l-1.9-12.48a.68.68,0,0,1,.59-.8l3-.45a.69.69,0,0,1,.8.59l.7,4.66,5.74-.87-.71-4.66a.69.69,0,0,1,.59-.8l3-.45a.69.69,0,0,1,.8.59Z"/><path class="cls-2" d="M188.46,269.05l-6,1.82-.15,1.93a1,1,0,0,1-.66.93l-3.07.93c-.38.11-.73-.09-.68-.53l1.72-13.7a1,1,0,0,1,.66-.93l3.93-1.19a1,1,0,0,1,1.06.39l9,10.48a.48.48,0,0,1-.27.82l-3.26,1a1,1,0,0,1-1.07-.41Zm-5.64-1.75,3.35-1-2.69-3.37-.19.05Z"/><path class="cls-2" d="M200.35,254.84a.68.68,0,0,1-.36.92l-1.74.76,2.87,6.62,1.74-.76a.68.68,0,0,1,.92.37l.8,1.83a.7.7,0,0,1-.36.93l-7.53,3.26a.69.69,0,0,1-.93-.37l-.79-1.84a.68.68,0,0,1,.36-.92l1.75-.75-2.87-6.62-1.75.75a.69.69,0,0,1-.92-.36l-.8-1.84a.68.68,0,0,1,.37-.92l7.52-3.26a.69.69,0,0,1,.93.36Z"/><path class="cls-2" d="M218.29,257.08a.68.68,0,0,1-.26.95l-9.76,5.51a.69.69,0,0,1-1-.27l-6.19-11a.69.69,0,0,1,.26-1l2.62-1.47a.68.68,0,0,1,.95.26l4.87,8.64,6.54-3.69a.69.69,0,0,1,.95.27Z"/><path class="cls-2" d="M227.74,248l-5.05,3.78.52,1.86a1,1,0,0,1-.3,1.11l-2.56,1.91a.48.48,0,0,1-.82-.26l-3.08-13.46a1,1,0,0,1,.3-1.1l3.28-2.46a1,1,0,0,1,1.13,0l12.06,6.76a.48.48,0,0,1,0,.86l-2.72,2a1,1,0,0,1-1.14,0Zm-5.91.29,2.8-2.09L221,244l-.16.12Z"/><path class="cls-2" d="M238.85,233.21,233.69,228a.69.69,0,0,1,0-1l2.13-2.12a.69.69,0,0,1,1,0l8.91,9a.68.68,0,0,1,0,1l-2.41,2.4a1.39,1.39,0,0,1-1.27.28l-8.71-1.65-.14.14,5.16,5.18a.69.69,0,0,1,0,1l-2.13,2.12a.69.69,0,0,1-1,0l-8.9-8.95a.67.67,0,0,1,0-1l2.41-2.4a1.42,1.42,0,0,1,1.27-.28l8.71,1.65Z"/><path class="cls-2" d="M248.46,230.71l-10.11-7.57a.68.68,0,0,1-.14-1l3.79-5c3.24-4.32,7.17-4.88,10.53-2.36s3.93,6.45.69,10.78l-3.78,5A.68.68,0,0,1,248.46,230.71Zm2.19-7.11c1.39-1.84,1.12-3.66-.88-5.16s-3.83-1.25-5.21.59L243,221.12l6.09,4.57Z"/><path class="cls-2" d="M33.4,159.3,31,163.64a.75.75,0,0,0,.18.94l3.66,3.06a.75.75,0,0,1-.65,1.31l-4.43-1a.76.76,0,0,0-.86.44l-2,4.84a.75.75,0,0,1-1.44-.2l-.57-5a.75.75,0,0,0-.7-.66l-4.91-.29a.75.75,0,0,1-.28-1.43l4.5-2.09a.75.75,0,0,0,.41-.88L22.61,158a.75.75,0,0,1,1.27-.71l3.27,3.48a.75.75,0,0,0,.94.12l4.26-2.58A.75.75,0,0,1,33.4,159.3Z"/><path class="cls-2" d="M266.62,159.93,271,162.3a.75.75,0,0,0,.94-.19l3-3.71a.75.75,0,0,1,1.32.63l-.94,4.44a.75.75,0,0,0,.46.85l4.87,2a.75.75,0,0,1-.19,1.44l-5,.64a.76.76,0,0,0-.66.71l-.21,4.92a.75.75,0,0,1-1.42.29L271,169.82a.75.75,0,0,0-.88-.4l-4.68,1.32a.75.75,0,0,1-.73-1.26l3.43-3.33a.76.76,0,0,0,.11-.94L265.63,161A.75.75,0,0,1,266.62,159.93Z"/><path class="cls-1" d="M147.7,295.39A147.69,147.69,0,0,1,43.26,43.26,147.69,147.69,0,1,1,252.13,252.13,146.69,146.69,0,0,1,147.7,295.39ZM147.7.5C66.53.5.5,66.53.5,147.7s66,147.19,147.2,147.19,147.19-66,147.19-147.19S228.86.5,147.7.5Z"/><path class="cls-1" d="M101.92,175.81l1.22,4.83a.76.76,0,0,0,.78.57l4.76-.3a.75.75,0,0,1,.42,1.39l-3.9,2.32a.74.74,0,0,0-.32.91l1.85,4.91a.75.75,0,0,1-1.18.84L101.71,188a.77.77,0,0,0-1,0L97,191.21a.75.75,0,0,1-1.18-.85l1.82-4.61a.75.75,0,0,0-.3-.92l-4.14-2.56a.75.75,0,0,1,.44-1.38l4.77.27a.74.74,0,0,0,.76-.55l1.32-4.81A.75.75,0,0,1,101.92,175.81Z"/><path class="cls-1" d="M125.2,175.81l1.21,4.83a.77.77,0,0,0,.78.57l4.76-.3a.75.75,0,0,1,.43,1.39l-3.91,2.32a.75.75,0,0,0-.32.91l1.86,4.91a.75.75,0,0,1-1.19.84L125,188a.75.75,0,0,0-1,0l-3.77,3.17a.75.75,0,0,1-1.18-.85l1.83-4.61a.77.77,0,0,0-.31-.92l-4.14-2.56a.75.75,0,0,1,.44-1.38l4.77.27a.76.76,0,0,0,.77-.55l1.32-4.81A.75.75,0,0,1,125.2,175.81Z"/><path class="cls-1" d="M195,175.81l1.21,4.83a.77.77,0,0,0,.78.57l4.76-.3a.75.75,0,0,1,.43,1.39l-3.91,2.32a.75.75,0,0,0-.32.91l1.86,4.91a.75.75,0,0,1-1.19.84L194.8,188a.75.75,0,0,0-1,0l-3.77,3.17a.75.75,0,0,1-1.18-.85l1.83-4.61a.77.77,0,0,0-.31-.92l-4.14-2.56a.75.75,0,0,1,.44-1.38l4.77.27a.76.76,0,0,0,.77-.55l1.31-4.81A.75.75,0,0,1,195,175.81Z"/><path class="cls-1" d="M148.47,175.81l1.22,4.83a.75.75,0,0,0,.77.57l4.76-.3a.75.75,0,0,1,.43,1.39l-3.91,2.32a.76.76,0,0,0-.32.91l1.86,4.91a.75.75,0,0,1-1.18.84L148.26,188a.77.77,0,0,0-1,0l-3.77,3.17a.75.75,0,0,1-1.18-.85l1.83-4.61a.76.76,0,0,0-.3-.92l-4.14-2.56a.75.75,0,0,1,.44-1.38l4.76.27a.75.75,0,0,0,.77-.55L147,175.8A.75.75,0,0,1,148.47,175.81Z"/><path class="cls-1" d="M171.74,175.81l1.22,4.83a.75.75,0,0,0,.77.57l4.76-.3a.75.75,0,0,1,.43,1.39l-3.9,2.32a.74.74,0,0,0-.32.91l1.85,4.91a.75.75,0,0,1-1.18.84L171.53,188a.77.77,0,0,0-1,0l-3.76,3.17a.75.75,0,0,1-1.19-.85l1.83-4.61a.75.75,0,0,0-.3-.92L163,182.27a.75.75,0,0,1,.44-1.38l4.77.27a.74.74,0,0,0,.76-.55l1.32-4.81A.75.75,0,0,1,171.74,175.81Z"/><path class="cls-1" d="M74,138.75s-4.47,4.18-4,8.21,24.46,7.9,38.48,6.26,12.08,3.88,21.33,7.61,36.54,7.76,48.32,2.68,16.56-8.35,16.56-8.35-4.48,7-9.85,9a36.83,36.83,0,0,0,17.75-7.9s9.7,1.79,14.17-3.88c0,0,9.7-3,5.52-7.46s-7.31,6.12-7.31,6.12-5.52,4.17-11.18,3.43c0,0,6-4.63,6-11.79,0,0,2.84,4.92,6.27,2.09s2.77-2.59,2.77-2.59.79,1.79,3.64-.73,4-4.25,2.41-6.21-3.86,2.52-3.86,2.52l-11.58-12.92s-4,4.2-2.8,8.45-2.29-2.35-8.95.72-16.11,11.13-10.23,5.09,10.4-9.45,12.81-8.67-10.07-3.18-6.6-5.59,11.63,3.3,11.63,3.3-9.9-8.78-15.66-6.32-2.63,4.75-2.63,4.75-3.52-3.33-14.26,2.69c-9,5-17.54,10.44-22.12,13.42a4.49,4.49,0,0,0-1.49,5.94l1.31,2.36a4.44,4.44,0,0,0,5.74,1.89l7.73-5.2a32.49,32.49,0,0,1,13.08-5.15l2.46-.4h0a14.53,14.53,0,0,0-6.53,10.44l-.18,1.48.27-4.53a2.21,2.21,0,0,0-3.24-2.08l-15.93,8.43A5.14,5.14,0,0,1,147,154l-.22-.35a5.12,5.12,0,0,0-2.73-2.18,26.48,26.48,0,0,1-3.8-1.69c-3.92-2.07-1.18-5.49-6.1-5.26s-15.21-4.53-19-12.14-6.15-13.7-10.85-12.42-1.57,8.34,2.68,12.92,22.37,19.86,22.37,19.86-11.63-9.23-37-9.06C81.84,143.71,77.3,136.05,74,138.75Z"/><path class="cls-1" d="M221,134.91l-9.28-11.35s4.53-4.47,9.28,1.23S221,134.91,221,134.91Z"/><circle class="cls-1" cx="197.95" cy="97.03" r="3.09"/><circle class="cls-1" cx="204.29" cy="119.1" r="2.27"/><circle class="cls-1" cx="208.13" cy="106.84" r="4.33"/><path class="cls-1" d="M148.41,248.2A100.17,100.17,0,1,1,248.57,148,100.28,100.28,0,0,1,148.41,248.2Zm0-199.83A99.67,99.67,0,1,0,248.07,148,99.78,99.78,0,0,0,148.41,48.37Z"/></g></g></svg>