<svg width="65" height="65" viewBox="0 0 65 65" fill="none" xmlns="http://www.w3.org/2000/svg">
<path d="M5.27551 10.2917C0.0400305 17.1856 -0.13449 27.625 0.0400263 32.5C-0.13449 37.375 0.0400305 47.8144 5.27551 54.7083C11.0345 62.2917 18.3642 65 32.5 65C46.6358 65 53.9655 62.2917 59.7245 54.7083C64.96 47.8144 65.1345 37.375 64.96 32.5C65.1345 27.625 64.96 17.1856 59.7245 10.2917C53.9655 2.70833 46.6358 0 32.5 0C18.3642 0 11.0345 2.70833 5.27551 10.2917Z" fill="#FEFEFE"/>
<path d="M54 24.2L49 26.95L44 31.7V48H51C52.657 48 54 46.657 54 45V24.2Z" fill="#4CAF50"/>
<path d="M12 24.2L15.614 25.91L22 31.7V48H15C13.343 48 12 46.657 12 45V24.2Z" fill="#1E88E5"/>
<path d="M44 19.2L33 27.45L22 19.2L21 25L22 31.7L33 39.95L44 31.7L45 25L44 19.2Z" fill="#E53935"/>
<path d="M12 20.298V24.2L22 31.7V19.2L18.876 16.859C18.132 16.301 17.228 16 16.298 16C13.924 16 12 17.924 12 20.298Z" fill="#C62828"/>
<path d="M54 20.298V24.2L44 31.7V19.2L47.124 16.859C47.868 16.301 48.772 16 49.702 16C52.076 16 54 17.924 54 20.298Z" fill="#FBC02D"/>
</svg>
