<svg width="27" height="31" viewBox="0 0 27 31" fill="none" xmlns="http://www.w3.org/2000/svg">
<path d="M23.1429 1.9375C25.2703 1.9375 27 3.6752 27 5.8125V25.1875C27 27.3248 25.2703 29.0625 23.1429 29.0625H3.85714C1.72969 29.0625 0 27.3248 0 25.1875V5.8125C0 3.6752 1.72969 1.9375 3.85714 1.9375H23.1429ZM17.6766 7.79238C17.092 7.63496 16.4772 7.93164 16.2482 8.49473L15.0429 11.401C14.8379 11.8975 14.9826 12.4666 15.3924 12.8057L16.875 14.0287C15.8746 16.16 14.1569 17.8855 12.0355 18.8906L10.8181 17.3951C10.4806 16.9834 9.91406 16.8381 9.41987 17.0439L6.52701 18.2549C5.96652 18.491 5.67121 19.1025 5.8279 19.6898L6.55112 22.3539C6.69576 22.8867 7.17188 23.25 7.71429 23.25C15.1694 23.25 21.2143 17.1771 21.2143 9.6875C21.2143 9.14258 20.8527 8.66426 20.3283 8.51895L17.6766 7.79238Z" fill="#4285F4"/>
</svg>
