<svg width="66" height="65" viewBox="0 0 66 65" fill="none" xmlns="http://www.w3.org/2000/svg">
<path d="M5.35667 10.2917C0.0406466 17.1856 -0.136559 27.625 0.0406421 32.5C-0.136559 37.375 0.0406466 47.8144 5.35667 54.7083C11.2043 62.2917 18.6467 65 33 65C47.3533 65 54.7957 62.2917 60.6433 54.7083C65.9594 47.8144 66.1366 37.375 65.9594 32.5C66.1366 27.625 65.9594 17.1856 60.6433 10.2917C54.7957 2.70833 47.3533 0 33 0C18.6467 0 11.2043 2.70833 5.35667 10.2917Z" fill="#FEFEFE"/>
<path d="M33 6C19.1928 6 8 17.7105 8 32.1562C8 46.602 19.1928 58.3125 33 58.3125C46.8072 58.3125 58 46.602 58 32.1562C58 17.7105 46.8072 6 33 6ZM44.5879 23.7884C44.2117 27.9243 42.5838 37.961 41.7552 42.5934C41.4048 44.5535 40.7147 45.2107 40.0468 45.275C38.5952 45.4148 37.4925 44.2712 36.0864 43.3068C33.8861 41.7978 32.643 40.8584 30.5072 39.3858C28.0389 37.6841 29.639 36.7491 31.0457 35.2198C31.4138 34.8198 37.8105 28.7324 37.9343 28.1802C37.9497 28.1111 37.9645 27.8532 37.8179 27.7178C37.6714 27.5824 37.456 27.6283 37.3003 27.6651C37.0797 27.7175 33.5646 30.1483 26.7551 34.9574C25.7575 35.6742 24.8538 36.0234 24.0441 36.0051C23.1514 35.985 21.4344 35.4771 20.1579 35.0429C18.5922 34.5105 17.3479 34.229 17.4562 33.3247C17.5127 32.8536 18.1327 32.372 19.3161 31.8798C26.6042 28.5577 31.464 26.3675 33.8956 25.3091C40.8383 22.2877 42.2809 21.7629 43.2213 21.7454C43.4281 21.7418 43.8905 21.7954 44.19 22.0497C44.3892 22.2308 44.5162 22.4836 44.5459 22.758C44.5966 23.0988 44.6107 23.4444 44.5879 23.7884Z" fill="#31A3DF"/>
</svg>
