<svg width="65" height="65" viewBox="0 0 65 65" fill="none" xmlns="http://www.w3.org/2000/svg">
<path d="M5.27551 10.2917C0.0400305 17.1856 -0.13449 27.625 0.0400263 32.5C-0.13449 37.375 0.0400305 47.8144 5.27551 54.7083C11.0345 62.2917 18.3642 65 32.5 65C46.6358 65 53.9655 62.2917 59.7245 54.7083C64.96 47.8144 65.1345 37.375 64.96 32.5C65.1345 27.625 64.96 17.1856 59.7245 10.2917C53.9655 2.70833 46.6358 0 32.5 0C18.3642 0 11.0345 2.70833 5.27551 10.2917Z" fill="#7160EC"/>
<path d="M49.9253 12.4793C48.7483 11.4282 43.9849 8.07746 33.3643 8.03255C33.3643 8.03255 20.8439 7.3049 14.7459 12.7308C11.354 16.0187 10.1585 20.8427 10.0288 26.8165C9.89902 32.7904 9.74147 43.9835 20.8717 47.0198H20.881L20.8717 51.6552C20.8717 51.6552 20.7976 53.5327 22.0765 53.91C23.6149 54.3771 24.5231 52.9488 25.9967 51.4126C26.8029 50.5682 27.915 49.3285 28.7584 48.3853C36.3762 49.0051 42.224 47.5858 42.8913 47.3792C44.4297 46.8941 53.1319 45.8161 54.5405 34.623C56.0048 23.0705 53.8362 15.7761 49.9253 12.4793ZM51.2135 33.7785C50.018 43.1211 42.9654 43.714 41.668 44.1182C41.1119 44.2889 35.9685 45.5286 29.509 45.1244C29.509 45.1244 24.6899 50.7569 23.1886 52.2211C22.6974 52.6972 22.1599 52.6523 22.1692 51.7091C22.1692 51.0892 22.2062 44.0104 22.2062 44.0104C22.197 44.0104 22.197 44.0104 22.2062 44.0104C12.7719 41.4772 13.328 31.9459 13.4299 26.9602C13.5319 21.9745 14.505 17.8872 17.3779 15.1383C22.5399 10.6018 33.1697 11.2755 33.1697 11.2755C42.1499 11.3114 46.45 13.9345 47.4509 14.8149C50.7594 17.5638 52.4461 24.1395 51.2135 33.7785ZM38.3317 26.5201C38.3688 27.2926 37.1732 27.3465 37.1362 26.574C37.0342 24.5977 36.0797 23.6364 34.115 23.5286C33.318 23.4837 33.3921 22.3249 34.1798 22.3698C36.7655 22.5046 38.2019 23.9419 38.3317 26.5201ZM40.213 27.5352C40.3057 23.7263 37.8498 20.7438 33.1882 20.4115C32.4005 20.3576 32.4839 19.1987 33.2716 19.2526C38.6468 19.6299 41.5104 23.2142 41.4085 27.5621C41.3992 28.3347 40.1945 28.2987 40.213 27.5352ZM44.5687 28.7389C44.578 29.5115 43.3732 29.5205 43.3732 28.7479C43.3176 21.4266 38.2853 17.438 32.1781 17.3931C31.3903 17.3841 31.3903 16.2342 32.1781 16.2342C39.0082 16.2792 44.5038 20.8516 44.5687 28.7389ZM43.5215 37.5515V37.5695C42.5206 39.2763 40.6486 41.1628 38.7209 40.5609L38.7024 40.5339C36.7469 40.0039 32.141 37.7042 29.231 35.4584C27.7297 34.3085 26.3581 32.9521 25.3016 31.6495C24.347 30.4907 23.3832 29.1162 22.4472 27.4633C20.4732 24.0048 20.0377 22.4596 20.0377 22.4596C19.4167 20.5911 21.3536 18.7765 23.1237 17.8063H23.1423C23.9949 17.3751 24.8104 17.5189 25.3572 18.1567C25.3572 18.1567 26.5064 19.4862 26.9975 20.142C27.4609 20.7528 28.0818 21.732 28.4062 22.28C28.9715 23.2591 28.6194 24.2563 28.0633 24.6695L26.9512 25.5319C26.3859 25.9721 26.46 26.7896 26.46 26.7896C26.46 26.7896 28.1096 32.8353 34.2725 34.3624C34.2725 34.3624 35.1159 34.4343 35.57 33.8863L36.4597 32.8083C36.886 32.2693 37.9146 31.928 38.9248 32.476C40.2871 33.2216 42.0201 34.3804 43.1693 35.4314C43.818 35.9435 43.9663 36.725 43.5215 37.5515Z" fill="white"/>
</svg>
