<svg width="66" height="64" viewBox="0 0 66 64" fill="none" xmlns="http://www.w3.org/2000/svg">
<path d="M5.35667 10.1333C0.0406466 16.9212 -0.136559 27.2 0.0406421 32C-0.136559 36.8 0.0406466 47.0788 5.35667 53.8667C11.2043 61.3333 18.6467 64 33 64C47.3533 64 54.7957 61.3333 60.6433 53.8667C65.9594 47.0788 66.1366 36.8 65.9594 32C66.1366 27.2 65.9594 16.9212 60.6433 10.1333C54.7957 2.66666 47.3533 0 33 0C18.6467 0 11.2043 2.66666 5.35667 10.1333Z" fill="#38E057"/>
<path d="M47.7094 16.2484C43.7812 12.2172 38.55 10 32.9906 10C21.5156 10 12.1781 19.5598 12.1781 31.308C12.1781 35.0609 13.1344 38.7275 14.9531 41.9621L12 53L23.0344 50.0342C26.0719 51.733 29.4938 52.6257 32.9813 52.6257H32.9906C44.4562 52.6257 54 43.0658 54 31.3176C54 25.6259 51.6375 20.2797 47.7094 16.2484ZM32.9906 49.0359C29.8781 49.0359 26.8312 48.1817 24.1781 46.5692L23.55 46.1853L17.0063 47.9417L18.75 41.4054L18.3375 40.7335C16.6031 37.9116 15.6938 34.6578 15.6938 31.308C15.6938 21.5467 23.4562 13.5993 33 13.5993C37.6219 13.5993 41.9625 15.4422 45.225 18.792C48.4875 22.1417 50.4938 26.5857 50.4844 31.3176C50.4844 41.0886 42.525 49.0359 32.9906 49.0359ZM42.4781 35.7712C41.9625 35.5025 39.4031 34.2163 38.925 34.0435C38.4469 33.8612 38.1 33.7748 37.7531 34.3123C37.4062 34.8498 36.4125 36.04 36.1031 36.4047C35.8031 36.7598 35.4938 36.8078 34.9781 36.5391C31.9219 34.9746 29.9156 33.746 27.9 30.2042C27.3656 29.2636 28.4344 29.3308 29.4281 27.296C29.5969 26.9408 29.5125 26.6337 29.3812 26.365C29.25 26.0962 28.2094 23.4759 27.7781 22.4105C27.3563 21.3739 26.925 21.5179 26.6063 21.4987C26.3063 21.4795 25.9594 21.4795 25.6125 21.4795C25.2656 21.4795 24.7031 21.6138 24.225 22.1417C23.7469 22.6792 22.4062 23.9654 22.4062 26.5857C22.4062 29.206 24.2719 31.74 24.525 32.0951C24.7875 32.4502 28.1906 37.8252 33.4125 40.1384C36.7125 41.5973 38.0062 41.7221 39.6562 41.4725C40.6594 41.319 42.7312 40.1864 43.1625 38.9386C43.5937 37.6908 43.5938 36.6254 43.4625 36.4047C43.3406 36.1647 42.9938 36.0304 42.4781 35.7712Z" fill="white"/>
</svg>
